<svg id="Layer_1" data-name="Layer 1" xmlns="http://www.w3.org/2000/svg" viewBox="0 0 128 36.33"><title>s-logo</title><path d="M.73.5H5.48V18.39a4.6,4.6,0,1,0,4.71-4.6H9.88V9.22c.48.08.95.15,1.41.25a10.82,10.82,0,0,1,4.63,2.18,8.12,8.12,0,0,1,2.9,6.84,9.54,9.54,0,0,1-1,4,8,8,0,0,1-4.42,4,9.75,9.75,0,0,1-6.71.28,8.35,8.35,0,0,1-4.78-4A9.79,9.79,0,0,1,.71,17.62c.05-4.33,0-8.66,0-13V.5Z"/><path d="M9.62,4.63V.17c5.89.32,10.72,2.71,14.1,7.54,4.17,6,4.59,12.35,1.32,18.84A17.7,17.7,0,0,1,9.63,36.17V31.74A13.4,13.4,0,0,0,20,26.27a13.16,13.16,0,0,0,2.64-9.06A13.59,13.59,0,0,0,9.62,4.63Z"/><path d="M127.29,27.11h-3.43l-.08-.63A7.46,7.46,0,0,1,114,24.64a7.24,7.24,0,0,1-.18-8.59,7.42,7.42,0,0,1,9.57-2.35v-.83h3.89Zm-7.35-2.66a4.26,4.26,0,1,0-4.24-4.28A4.27,4.27,0,0,0,119.94,24.45Z"/><path d="M71.31,20.26a7.88,7.88,0,0,1-1.48,4.94,7.06,7.06,0,0,1-7.17,2.42,6.31,6.31,0,0,1-3.39-2,6.79,6.79,0,0,1-1.56-3.26,8.76,8.76,0,0,1,.48-5.11,6.67,6.67,0,0,1,7.17-4,6.52,6.52,0,0,1,5.91,6.32C71.29,19.82,71.3,20.1,71.31,20.26Zm-10.26.14a5.31,5.31,0,0,0,1,3.26,2.93,2.93,0,0,0,4.75.08,6,6,0,0,0,.18-6.35A3,3,0,0,0,62,17.2,5.6,5.6,0,0,0,61.05,20.4Z"/><path d="M56.64,20.58a7,7,0,0,1-2.4,5.58,6.84,6.84,0,0,1-6.82,1.27A6.36,6.36,0,0,1,43,21.76a7.89,7.89,0,0,1,1.21-5.71,6.58,6.58,0,0,1,6-2.87,6.21,6.21,0,0,1,4.56,2A7.52,7.52,0,0,1,56.64,20.58Zm-10.26.1c0,.23,0,.57.1.9a4.28,4.28,0,0,0,1.45,2.69,2.91,2.91,0,0,0,4-.33,5.84,5.84,0,0,0,.19-6.78,3,3,0,0,0-4.76.1A5.78,5.78,0,0,0,46.38,20.68Z"/><path d="M76.62,27.5H73.1v-14h3.1l.09,1.12c.08,0,.16,0,.2-.06a5.37,5.37,0,0,1,6.56-.48,4.71,4.71,0,0,1,2,3.11,17.24,17.24,0,0,1,.24,2.69c0,2.37,0,4.74,0,7.11v.52H81.79c0-.17,0-.33,0-.49,0-2.67,0-5.33,0-8a3.79,3.79,0,0,0-.44-1.69,2.25,2.25,0,0,0-3-.83,2.87,2.87,0,0,0-1.68,2.77c0,2.57,0,5.15,0,7.72Z"/><path d="M102.59,14.22l-1,2.88a4.93,4.93,0,0,0-2.44-1,4.39,4.39,0,0,0-1.2.08,1.05,1.05,0,0,0-.89,1,1.1,1.1,0,0,0,.7,1.15c.55.27,1.13.47,1.66.75a11.14,11.14,0,0,1,2.09,1.23,4.13,4.13,0,0,1,.68,5.45A4.66,4.66,0,0,1,99,27.65a8,8,0,0,1-5.58-.94l-.2-.13,1-2.91c.21.14.37.25.54.35a5.05,5.05,0,0,0,3.56.83,1.3,1.3,0,0,0,1.22-1.63,1.36,1.36,0,0,0-.74-.92,14.79,14.79,0,0,0-1.46-.66,5.77,5.77,0,0,1-3.15-2.4,4,4,0,0,1,1.06-4.91,6.08,6.08,0,0,1,5.82-.79C101.54,13.71,102.05,14,102.59,14.22Z"/><path d="M111.84,24.49l.17,2.79a5.62,5.62,0,0,1-4.84-.05,3.12,3.12,0,0,1-1.63-2.33,18.16,18.16,0,0,1-.21-2.56c0-2,0-3.93,0-5.94h-2V13.46h2v-3l3.43-.92v3.87h3.35v2.93h-3.33v.45c0,2,0,4,0,5.94a6.05,6.05,0,0,0,.14,1.2.86.86,0,0,0,1,.75C110.5,24.68,111.14,24.57,111.84,24.49Z"/><path d="M35.3,13.47h3.09l.07,1.18a4.1,4.1,0,0,1,4.39-1.28v3.34l-.71-.14a2.49,2.49,0,0,0-2.86,1.37,4.83,4.83,0,0,0-.48,2.31v7.24H35.3Z"/><path d="M29.12,13.47h3.44v14H29.12Z"/><path d="M91.42,27.5H88v-14h3.42Z"/><path d="M32.84,10.41a2,2,0,0,1-2.08,2,2,2,0,0,1,.11-4A2,2,0,0,1,32.84,10.41Z"/><path d="M89.74,8.36a2,2,0,1,1-.1,4,2,2,0,0,1-2-2.07A2,2,0,0,1,89.74,8.36Z"/></svg>